<svg id="visual" viewBox="0 0 1800 650" width="1800" height="650" xmlns="http://www.w3.org/2000/svg" xmlns:xlink="http://www.w3.org/1999/xlink" version="1.1"><path d="M865 0L863.3 12C861.7 24 858.3 48 857.3 72C856.3 96 857.7 120 871 144.2C884.3 168.3 909.7 192.7 906.2 216.8C902.7 241 870.3 265 858.5 289C846.7 313 855.3 337 867.5 361C879.7 385 895.3 409 888.3 433.2C881.3 457.3 851.7 481.7 837 505.8C822.3 530 822.7 554 845.8 578C869 602 915 626 938 638L961 650L0 650L0 638C0 626 0 602 0 578C0 554 0 530 0 505.8C0 481.7 0 457.3 0 433.2C0 409 0 385 0 361C0 337 0 313 0 289C0 265 0 241 0 216.8C0 192.7 0 168.3 0 144.2C0 120 0 96 0 72C0 48 0 24 0 12L0 0Z" fill="#ffffff" stroke-linecap="round" stroke-linejoin="miter"></path></svg>