<svg id="visual" viewBox="0 0 450 700" width="450" height="700" xmlns="http://www.w3.org/2000/svg" xmlns:xlink="http://www.w3.org/1999/xlink" version="1.1"><path d="M0 336L8.3 341.3C16.7 346.7 33.3 357.3 50 363C66.7 368.7 83.3 369.3 100 367C116.7 364.7 133.3 359.3 150 360.5C166.7 361.7 183.3 369.3 200 373C216.7 376.7 233.3 376.3 250 369C266.7 361.7 283.3 347.3 300 345.5C316.7 343.7 333.3 354.3 350 352.3C366.7 350.3 383.3 335.7 400 330.2C416.7 324.7 433.3 328.3 441.7 330.2L450 332L450 701L441.7 701C433.3 701 416.7 701 400 701C383.3 701 366.7 701 350 701C333.3 701 316.7 701 300 701C283.3 701 266.7 701 250 701C233.3 701 216.7 701 200 701C183.3 701 166.7 701 150 701C133.3 701 116.7 701 100 701C83.3 701 66.7 701 50 701C33.3 701 16.7 701 8.3 701L0 701Z" fill="#ffffff" stroke-linecap="round" stroke-linejoin="miter"></path></svg>