<svg id="visual" viewBox="0 0 1440 700" width="1440" height="700" xmlns="http://www.w3.org/2000/svg" xmlns:xlink="http://www.w3.org/1999/xlink" version="1.1"><path d="M0 128L40 135.3C80 142.7 160 157.3 240 149.2C320 141 400 110 480 86.7C560 63.3 640 47.7 720 34.8C800 22 880 12 960 58.3C1040 104.7 1120 207.3 1200 271.2C1280 335 1360 360 1400 372.5L1440 385L1440 701L1400 701C1360 701 1280 701 1200 701C1120 701 1040 701 960 701C880 701 800 701 720 701C640 701 560 701 480 701C400 701 320 701 240 701C160 701 80 701 40 701L0 701Z" fill="#155b87" stroke-linecap="round" stroke-linejoin="miter"></path></svg>